
        <svg xmlns="http://www.w3.org/2000/svg" xmlns:xlink="http://www.w3.org/1999/xlink" version="1.1" width="3157.339286314223" 
        height="1091.435892443186" viewBox="0 -70.80267884140044 3157.339286314223 1091.435892443186">
			
			<g transform="scale(7.86696431571116) translate(10, 10)">
				<defs id="SvgjsDefs11182"><linearGradient id="SvgjsLinearGradient11189"><stop id="SvgjsStop11190" stop-color="#6d7cff" offset="0"></stop><stop id="SvgjsStop11191" stop-color="#ff51ff" offset="1"></stop></linearGradient></defs><g id="SvgjsG11183" featureKey="symbolFeature-0" transform="matrix(0.3597921357153425,0,0,0.3597921357153425,0.005413132412953609,-9)" fill="url(#SvgjsLinearGradient11189)"><defs xmlns="http://www.w3.org/2000/svg"></defs><g xmlns="http://www.w3.org/2000/svg"><path class="fil0" d="M122 37c14,3 27,7 41,10 -12,-16 -24,-33 -41,-47 -4,12 -4,24 0,37z" style="fill: url(#SvgjsLinearGradient11189);"></path><path class="fil0" d="M51 100c-4,1 -9,1 -14,-1 18,-7 25,-28 42,-37 -12,-12 -18,-30 -18,-53 21,8 41,18 58,30 21,7 42,13 63,19 0,0 12,20 15,28 2,9 17,23 17,23 10,5 20,9 29,14 14,4 10,4 5,19 -11,11 -16,8 -24,12 2,3 2,5 -2,7 -18,5 -39,-7 -57,-14 -28,14 5,55 19,64 -7,6 -21,9 -32,7 0,10 11,25 19,33 -20,-1 -31,-7 -40,-13 1,15 10,28 23,39 -44,0 -45,-25 -39,-68 9,11 24,28 37,27 -8,-13 -11,-21 -12,-36 5,5 14,15 24,8 -10,-18 -34,-56 0,-70 13,-5 32,15 45,10 -7,-5 -7,-20 23,-14 -22,-17 -37,2 -49,0 -35,-5 -28,-20 -46,-34 -11,-9 -38,-8 -38,-8 7,2 13,4 20,6 -20,4 -35,13 -49,26 10,-6 19,-10 31,-11 -12,8 -18,18 -20,30 7,-8 19,-26 27,-18 8,9 -5,30 4,36 7,4 16,-11 24,-14 -8,9 -15,32 -25,25 -6,-5 -14,-15 -13,-30 -23,22 -32,30 -51,81 7,-7 13,-13 20,-20 -30,76 35,74 35,102 -54,-19 -103,-60 -102,-149 23,20 24,-21 51,-56zm18 -77c0,14 9,23 17,30 0,-4 -3,-7 -3,-11 3,1 9,4 11,6 -1,-4 -5,-8 -6,-12 6,2 13,3 18,6 -10,-9 -24,-16 -37,-19zm91 58c3,0 9,1 15,3 0,3 -1,8 1,9 4,-1 6,-5 6,-5 1,3 2,5 1,9 0,0 -11,-5 -12,-6 -2,-1 -11,-10 -11,-10z" style="fill: url(#SvgjsLinearGradient11189);"></path></g></g><g id="SvgjsG11184" featureKey="nameFeature-0" transform="matrix(1.6145335267875438,0,0,1.6145335267875438,107.25428232563463,-2.6640067074100777)" fill="#ffffff"><path d="M2.32 33.88 c0 3.24 1.96 6.12 6 6.12 c1.96 0 3.56 -0.76 4.56 -2.16 c0.96 1.4 2.64 2.16 4.6 2.16 c4.32 0 6.04 -3.24 6.04 -6.52 l0 -21.92 l-3.12 0 l0 21.4 c0 2.24 -0.64 4.08 -2.92 4.08 c-2.36 0 -3 -1.8 -3 -4.08 l0 -21.4 l-3.12 0 l0 21.4 c0 2.24 -0.64 4.08 -3 4.08 c-2.32 0 -2.96 -1.84 -2.96 -4.08 l0 -21.4 l-3.08 0 l0 22.32 z M28.08 33.88 c0 3.64 1.84 6.12 6.24 6.12 c4.52 0 6.56 -2.2 6.56 -6.12 l0 -16.16 c0 -3.68 -1.88 -6.16 -6.28 -6.16 c-4.52 0 -6.52 2.16 -6.52 6.16 l0 16.16 z M37.76 33.16 c0 2.56 -0.6 3.88 -3.32 3.88 c-2.68 0 -3.28 -1.36 -3.28 -3.88 l0 -14.76 c0 -2.52 0.56 -3.88 3.28 -3.88 c2.76 0 3.32 1.32 3.32 3.88 l0 14.76 z M45.480000000000004 40 l10.48 0 l0 -2.96 l-7.36 0 l0 -25.48 l-3.12 0 l0 28.44 z M63.120000000000005 40 l3.04 0 l5.56 -28.4 l-3.16 0 l-3.88 20.96 l-3.96 -20.96 l-3.16 0 z M75.08 40 l3.12 0 l0 -28.44 l-3.12 0 l0 28.44 z M83 33.88 c0 3.72 1.76 6.12 6.24 6.12 s6.36 -2.36 6.36 -6.12 l0 -6.2 l-3.12 0 l0 5.48 c0 2.52 -0.52 3.88 -3.2 3.88 c-2.64 0 -3.2 -1.36 -3.2 -3.88 l0 -14.76 c0 -2.48 0.56 -3.88 3.2 -3.88 c2.68 0 3.2 1.4 3.2 3.88 l0 5 l3.12 0 l0 -5.68 c0 -3.64 -1.92 -6.16 -6.28 -6.16 c-4.4 0 -6.32 2.4 -6.32 6.16 l0 16.16 z M100 40 l3.2 0 l0 -21.4 c0 -2.2 0.76 -4.08 3.04 -4.08 c2.36 0 3.08 1.88 3.08 4.08 l0 21.4 l3.28 0 l0 -21.92 c0 -2.72 -1.24 -5.32 -4.4 -6.24 l0 -0.04 l-0.44 -0.12 c-0.44 -0.08 -0.88 -0.12 -1.36 -0.12 c-0.56 0 -1.2 0 -2.28 0.72 l0.44 -0.52 c-3.12 0.8 -4.56 3.24 -4.56 5.96 l0 22.28 z M117.12 33.88 c0 3.64 1.84 6.12 6.24 6.12 c4.52 0 6.56 -2.2 6.56 -6.12 l0 -16.16 c0 -3.68 -1.88 -6.16 -6.28 -6.16 c-4.52 0 -6.52 2.16 -6.52 6.16 l0 16.16 z M126.80000000000001 33.16 c0 2.56 -0.6 3.88 -3.32 3.88 c-2.68 0 -3.28 -1.36 -3.28 -3.88 l0 -14.76 c0 -2.52 0.56 -3.88 3.28 -3.88 c2.76 0 3.32 1.32 3.32 3.88 l0 14.76 z M134.52000000000004 40 l6.36 0 c4.44 0 6.28 -2.48 6.28 -6.12 l0 -16.16 c0 -3.68 -1.84 -6.16 -6.28 -6.16 l-6.36 0 l0 28.44 z M137.64000000000001 37.04 l0 -22.52 l3.12 0 c2.72 0 3.32 1.36 3.32 3.88 l0 14.76 c0 2.56 -0.6 3.88 -3.32 3.88 l-3.12 0 z M151.76000000000005 39.44 l11.04 0 l0 -2.96 l-7.92 0 l0 -9.92 l6.04 0 l0 -2.96 l-6.04 0 l0 -8.76 l7.8 0 l0 -2.96 l-10.92 0 l0 27.56 z"></path></g><g id="SvgjsG11185" featureKey="sloganFeature-0" transform="matrix(0.9237850828162656,0,0,0.9237850828162656,105.42956531516285,70.6143347996406)" fill="#ffffff"><path d="M10.35 18.82 c0.18 0 0.3 0.12 0.3 0.3 l0 0.58 c0 0.18 -0.12 0.3 -0.3 0.3 l-8.35 0 c-0.18 0 -0.3 -0.12 -0.3 -0.3 l0 -13.4 c0 -0.18 0.12 -0.3 0.3 -0.3 l0.65 0 c0.18 0 0.3 0.12 0.3 0.3 l0 12.52 l7.4 0 z M32.743500000000004 6 c0.18 0 0.3 0.12 0.3 0.3 l0 8.04 c0 3.94 -2 5.95 -5.54 5.95 c-3.55 0 -5.54 -2.01 -5.54 -5.95 l0 -8.04 c0 -0.18 0.12 -0.3 0.3 -0.3 l0.65 0 c0.18 0 0.3 0.12 0.3 0.3 l0 8.04 c0 3.33 1.72 4.79 4.29 4.79 c2.56 0 4.29 -1.46 4.29 -4.79 l0 -8.04 c0 -0.18 0.12 -0.3 0.3 -0.3 l0.65 0 z M54.797 19.64 c0.12 0.19 0.04 0.36 -0.2 0.36 l-0.69 0 c-0.16 0 -0.28 -0.06 -0.36 -0.2 l-3.96 -5.94 l-3.96 5.94 c-0.08 0.14 -0.2 0.2 -0.36 0.2 l-0.7 0 c-0.24 0 -0.32 -0.17 -0.2 -0.36 l4.54 -6.81 l-4.32 -6.47 c-0.12 -0.2 -0.04 -0.36 0.2 -0.36 l0.7 0 c0.16 0 0.28 0.06 0.36 0.2 l3.74 5.61 l3.74 -5.61 c0.08 -0.14 0.2 -0.2 0.36 -0.2 l0.69 0 c0.24 0 0.32 0.16 0.2 0.36 l-4.31 6.47 z M76.9005 6 c0.18 0 0.3 0.12 0.3 0.3 l0 8.04 c0 3.94 -2 5.95 -5.54 5.95 c-3.55 0 -5.54 -2.01 -5.54 -5.95 l0 -8.04 c0 -0.18 0.12 -0.3 0.3 -0.3 l0.65 0 c0.18 0 0.3 0.12 0.3 0.3 l0 8.04 c0 3.33 1.72 4.79 4.29 4.79 c2.56 0 4.29 -1.46 4.29 -4.79 l0 -8.04 c0 -0.18 0.12 -0.3 0.3 -0.3 l0.65 0 z M96.074 14.35 l2.8 5.3 c0.11 0.21 0.01 0.35 -0.22 0.35 l-0.74 0 c-0.16 0 -0.27 -0.07 -0.35 -0.22 l-2.78 -5.29 l-0.29 0 l-4.03 0 l0 5.21 c0 0.18 -0.12 0.3 -0.3 0.3 l-0.65 0 c-0.18 0 -0.3 -0.12 -0.3 -0.3 l0 -13.4 c0 -0.18 0.12 -0.3 0.3 -0.3 l4.98 0 c3.35 0 4.72 1.56 4.72 4.24 c0 2.22 -0.93 3.67 -3.14 4.11 z M90.464 13.309999999999999 l4.1 0 c1.99 0 3.42 -0.58 3.42 -3.07 s-1.43 -3.06 -3.42 -3.06 l-4.1 0 l0 6.13 z M121.66749999999999 6 c0.24 0 0.33 0.16 0.2 0.36 l-5.37 8.22 l0 5.12 c0 0.18 -0.12 0.3 -0.3 0.3 l-0.65 0 c-0.18 0 -0.3 -0.12 -0.3 -0.3 l0 -5.12 l-5.36 -8.22 c-0.13 -0.2 -0.04 -0.36 0.2 -0.36 l0.79 0 c0.16 0 0.27 0.06 0.36 0.2 l4.64 7.13 l4.64 -7.13 c0.09 -0.14 0.2 -0.2 0.36 -0.2 l0.79 0 z M160.0845 6 c0.18 0 0.3 0.12 0.3 0.3 l0 13.4 c0 0.18 -0.12 0.3 -0.3 0.3 l-0.65 0 c-0.18 0 -0.3 -0.12 -0.3 -0.3 l0 -6.29 l-7.88 0 l0 6.29 c0 0.18 -0.12 0.3 -0.3 0.3 l-0.65 0 c-0.18 0 -0.3 -0.12 -0.3 -0.3 l0 -13.4 c0 -0.18 0.12 -0.3 0.3 -0.3 l0.65 0 c0.18 0 0.3 0.12 0.3 0.3 l0 5.93 l7.88 0 l0 -5.93 c0 -0.18 0.12 -0.3 0.3 -0.3 l0.65 0 z M179.498 20.26 c-3.96 0 -7.15 -3.2 -7.15 -7.2 c0 -4.02 3.19 -7.22 7.15 -7.22 c3.94 0 7.13 3.2 7.13 7.22 c0 4 -3.19 7.2 -7.13 7.2 z M179.498 19.11 c3.31 0 5.93 -2.68 5.93 -6.05 c0 -3.39 -2.62 -6.07 -5.93 -6.07 c-3.33 0 -5.95 2.68 -5.95 6.07 c0 3.37 2.62 6.05 5.95 6.05 z M202.9515 12.23 c2.76 0.59 5.13 1.35 5.13 4.26 c0 2.13 -1.53 3.81 -5.07 3.81 c-2.92 0 -4.83 -1.12 -5.02 -3.19 c-0.02 -0.2 0.1 -0.37 0.28 -0.37 l0.68 0 c0.18 0 0.29 0.15 0.3 0.31 c0.13 1.27 1.53 2.1 3.76 2.1 c2.48 0 3.83 -0.87 3.83 -2.68 c0 -2.15 -1.66 -2.48 -3.89 -3.03 c-2.56 -0.63 -4.59 -1.42 -4.59 -4.08 c0 -2.11 1.51 -3.53 4.5 -3.53 c2.82 0 4.58 1.09 4.79 3.15 c0.02 0.2 -0.1 0.28 -0.28 0.28 l-0.63 0 c-0.18 0 -0.29 -0.06 -0.3 -0.22 c-0.13 -1.22 -1.46 -2.09 -3.59 -2.09 c-1.96 0 -3.3 0.79 -3.3 2.41 c0 1.71 1.35 2.42 3.4 2.87 z M229.54500000000002 6 c0.18 0 0.3 0.12 0.3 0.3 l0 0.58 c0 0.18 -0.12 0.3 -0.3 0.3 l-4.45 0 l0 12.52 c0 0.18 -0.12 0.3 -0.3 0.3 l-0.65 0 c-0.18 0 -0.3 -0.12 -0.3 -0.3 l0 -12.52 l-4.45 0 c-0.18 0 -0.3 -0.12 -0.3 -0.3 l0 -0.58 c0 -0.18 0.12 -0.3 0.3 -0.3 l10.15 0 z M250.75850000000003 7.18 l-4 0 l0 11.64 l4 0 c0.18 0 0.3 0.12 0.3 0.3 l0 0.58 c0 0.18 -0.12 0.3 -0.3 0.3 l-9.25 0 c-0.18 0 -0.3 -0.12 -0.3 -0.3 l0 -0.58 c0 -0.18 0.12 -0.3 0.3 -0.3 l4 0 l0 -11.64 l-4 0 c-0.18 0 -0.3 -0.12 -0.3 -0.3 l0 -0.58 c0 -0.18 0.12 -0.3 0.3 -0.3 l9.25 0 c0.18 0 0.3 0.12 0.3 0.3 l0 0.58 c0 0.18 -0.12 0.3 -0.3 0.3 z M272.95200000000006 6 c0.18 0 0.3 0.12 0.3 0.3 l0 13.4 c0 0.15 -0.09 0.26 -0.22 0.29 l0 0.01 l-1.05 0 c-0.16 0 -0.28 -0.06 -0.36 -0.2 l-7.2 -12.09 l0 11.99 c0 0.18 -0.12 0.3 -0.3 0.3 l-0.65 0 c-0.18 0 -0.3 -0.12 -0.3 -0.3 l0 -13.4 c0 -0.16 0.09 -0.27 0.23 -0.29 l0 -0.01 l1.04 0 c0.16 0 0.28 0.06 0.36 0.2 l7.2 12.07 l0 -11.97 c0 -0.18 0.12 -0.3 0.3 -0.3 l0.65 0 z M298.37550000000005 12.93 c0.18 0 0.3 0.12 0.3 0.3 l0 0.5 c0 3.74 -2.47 6.53 -6.45 6.53 c-4.04 0 -7.01 -3.22 -7.01 -7.23 c0 -3.99 3.03 -7.19 7 -7.19 c1.9 0 3.37 0.7 4.68 1.84 c0.14 0.12 0.17 0.28 0.02 0.42 l-0.43 0.44 c-0.15 0.14 -0.28 0.11 -0.42 -0.01 c-1.08 -0.93 -2.28 -1.48 -3.84 -1.48 c-3.18 0 -5.75 2.57 -5.75 5.98 c0 3.43 2.54 6.01 5.76 6.01 c2.96 0 5.19 -1.96 5.27 -4.9 l-5.03 0 c-0.18 0 -0.3 -0.12 -0.3 -0.3 l0 -0.61 c0 -0.18 0.12 -0.3 0.3 -0.3 l5.9 0 z"></path></g>
			</g>
		</svg>
	